<svg version="1.1" id="Layer_1" xmlns="http://www.w3.org/2000/svg" xmlns:xlink="http://www.w3.org/1999/xlink" x="0px" y="0px"
	 width="100%" viewBox="0 0 258 180" enable-background="new 0 0 258 180" xml:space="preserve">
<path fill="#000000" opacity="1.000000" stroke="none" 
	d="
M166.000000,181.000000 
	C110.666672,181.000000 55.833340,181.000000 1.000007,181.000000 
	C1.000005,121.000008 1.000005,61.000015 1.000002,1.000015 
	C86.999992,1.000010 172.999985,1.000010 259.000000,1.000005 
	C259.000000,60.999985 259.000000,120.999969 259.000000,180.999969 
	C228.166672,181.000000 197.333328,181.000000 166.000000,181.000000 
M48.359253,46.123016 
	C46.220356,47.044586 44.081459,47.966152 41.238102,49.048656 
	C38.662128,51.030388 36.093811,53.022194 33.506691,54.989265 
	C32.349228,55.869331 30.876051,56.484818 30.022453,57.588692 
	C25.524862,63.404999 22.197605,69.724884 23.023575,77.413513 
	C23.509838,81.939964 24.229994,86.441299 24.273952,90.603088 
	C23.449471,90.046860 22.487383,88.886894 21.824139,89.038078 
	C18.822716,89.722176 15.832908,90.622513 13.067204,91.928459 
	C12.779973,92.064087 13.693235,95.571136 14.595626,97.213882 
	C16.174198,100.087555 18.365442,102.623024 19.963984,105.487701 
	C23.716375,112.212196 26.792418,119.360077 30.992558,125.780289 
	C44.507763,146.439240 70.036934,152.890808 92.409805,149.679703 
	C93.114189,150.079758 93.807167,150.806198 94.524643,150.831253 
	C106.581734,151.252396 118.664124,152.160400 130.691895,151.694702 
	C136.625931,151.464935 143.760086,152.456055 148.353104,146.625916 
	C151.142670,147.750229 153.889633,149.696930 156.729813,149.843979 
	C165.109879,150.277908 173.526871,150.011002 181.929382,149.997131 
	C193.627151,149.977814 204.852478,141.390182 207.670776,130.075562 
	C208.127838,128.240631 207.919540,126.075737 207.447189,124.207909 
	C206.478500,120.377380 205.122269,116.644844 204.265930,112.285522 
	C206.141586,109.873573 208.017242,107.461632 210.609222,104.913948 
	C215.805466,103.487274 218.732315,99.658737 221.613586,94.806656 
	C229.664429,83.669090 230.252731,75.377190 223.696136,65.306137 
	C226.035843,64.523499 228.670532,64.187294 230.641251,62.863029 
	C234.129272,60.519222 240.117920,59.799816 239.758957,54.382549 
	C239.424286,49.331615 237.745605,44.127991 235.562332,39.509834 
	C233.412537,34.962498 230.333389,30.639256 226.852051,26.990484 
	C222.376465,22.299637 217.735718,16.833708 212.020401,14.458247 
	C201.120987,9.928123 189.420670,6.934917 177.726044,12.931901 
	C173.441269,15.129134 168.163803,16.441734 165.111908,19.779016 
	C158.193314,27.344572 152.375931,35.917160 145.887329,44.371456 
	C140.083405,37.938938 134.182983,30.659325 127.494812,24.194706 
	C120.779686,17.704031 112.709534,13.263228 102.965576,13.008444 
	C93.526001,12.761618 84.084930,12.586159 74.352524,16.098167 
	C72.855194,17.042530 71.106682,17.741650 69.903854,18.973564 
	C64.599014,24.406706 59.168842,29.761812 54.366249,35.622276 
	C51.970875,38.545288 50.827950,42.494675 48.359253,46.123016 
z"/>
<path fill="#568E3D" opacity="1.000000" stroke="none" 
	d="
M75.072670,16.159449 
	C84.084930,12.586159 93.526001,12.761618 102.965576,13.008444 
	C112.709534,13.263228 120.779686,17.704031 127.494812,24.194706 
	C134.182983,30.659325 140.083405,37.938938 145.887329,44.371456 
	C152.375931,35.917160 158.193314,27.344572 165.111908,19.779016 
	C168.163803,16.441734 173.441269,15.129134 177.726044,12.931901 
	C189.420670,6.934917 201.120987,9.928123 212.020401,14.458247 
	C217.735718,16.833708 222.376465,22.299637 226.852051,26.990484 
	C230.333389,30.639256 233.412537,34.962498 235.562332,39.509834 
	C237.745605,44.127991 239.424286,49.331615 239.758957,54.382549 
	C240.117920,59.799816 234.129272,60.519222 230.641251,62.863029 
	C228.670532,64.187294 226.035843,64.523499 223.696136,65.306137 
	C230.252731,75.377190 229.664429,83.669090 221.246155,94.496017 
	C220.878708,90.939758 220.878708,87.694145 220.878708,83.612968 
	C215.710999,85.305321 211.364716,86.728668 206.625961,88.084496 
	C204.137512,87.826813 202.041534,87.636650 199.624603,87.340454 
	C198.855179,87.190269 198.406693,87.146118 197.805542,86.807701 
	C196.805222,86.324104 195.957581,86.134773 195.039215,85.590950 
	C193.686508,84.177284 192.375717,83.150620 191.131332,82.048950 
	C190.076477,81.115051 189.098389,80.094475 188.504044,79.085716 
	C196.821472,79.329971 204.722580,79.760162 212.619324,79.691071 
	C213.739334,79.681267 215.816040,77.216019 215.780533,75.933472 
	C215.609894,69.770531 214.866043,63.623466 214.315170,57.350628 
	C211.232742,57.134617 209.116440,56.986309 206.788269,56.574142 
	C204.068375,55.906525 201.560379,55.502766 198.710175,54.941864 
	C188.464401,51.548981 178.792572,54.476028 168.839081,55.560654 
	C163.748245,54.853775 158.882034,54.472900 153.736511,53.855606 
	C151.801971,53.292133 150.146744,52.965076 148.491531,52.638023 
	C148.497604,52.422016 148.503662,52.206009 148.509735,51.990002 
	C169.914703,49.908306 191.319672,47.826614 212.724625,45.744919 
	C212.779709,45.018471 212.834808,44.292023 212.889893,43.565575 
	C211.246979,43.213879 209.572556,42.451672 207.966095,42.574986 
	C194.261658,43.626957 180.562515,44.764336 166.876938,46.038692 
	C160.796448,46.604889 154.754150,47.573135 148.687424,48.299648 
	C146.499771,48.561634 143.850327,49.526402 142.163300,48.677197 
	C130.387482,42.749588 117.455154,41.470940 104.881340,38.688175 
	C100.283791,37.670673 96.407471,37.807629 92.986595,41.414852 
	C91.751717,42.717010 90.071007,43.601826 88.573860,44.648651 
	C85.724174,46.641201 82.749428,48.478561 80.072174,50.679123 
	C79.307037,51.308025 79.386971,52.965054 79.079399,54.150642 
	C80.283188,54.157803 81.808495,54.644291 82.635414,54.089607 
	C86.325317,51.614464 89.887726,48.931805 93.358559,46.152260 
	C97.011864,43.226589 100.679970,41.154510 105.633682,42.951229 
	C108.413071,43.959316 111.437630,44.274014 114.326874,45.000031 
	C122.322060,47.009102 130.319916,49.013138 138.265442,51.205093 
	C139.001694,51.408203 139.372574,52.935669 139.541580,53.890961 
	C138.170990,53.940552 137.171951,53.947388 136.025253,53.688168 
	C135.265854,52.892792 134.654099,52.363472 133.678085,51.640167 
	C126.679504,51.038673 119.968773,49.727135 113.349266,53.200390 
	C111.450256,53.884785 109.856644,54.476707 108.060303,54.773079 
	C106.908730,54.958168 105.959900,55.438808 104.709282,56.135765 
	C100.903656,57.957573 97.399811,59.563076 93.495827,61.123955 
	C91.751251,61.093948 90.406815,61.108562 88.688828,61.075443 
	C87.563828,60.999165 86.812370,60.970619 85.757095,60.675270 
	C75.827171,60.911442 69.262268,55.247005 63.056808,48.899757 
	C65.585457,44.249863 68.089668,39.978775 70.254456,35.542072 
	C72.290230,31.369791 73.776665,26.925915 75.872635,22.787848 
	C77.190231,20.186539 77.432991,18.122669 75.072670,16.159449 
z"/>
<path fill="#080401" opacity="1.000000" stroke="none" 
	d="
M197.958221,87.101967 
	C198.406693,87.146118 198.855179,87.190269 199.636230,87.728577 
	C200.901932,89.790504 201.582870,92.426765 202.817261,92.718117 
	C206.034622,93.477524 206.809189,90.818367 207.018448,88.152008 
	C211.364716,86.728668 215.710999,85.305321 220.878708,83.612968 
	C220.878708,87.694145 220.878708,90.939758 220.930267,94.649353 
	C218.732315,99.658737 215.805466,103.487274 209.916443,105.179794 
	C207.781769,105.954697 206.352936,106.854462 204.895615,106.903236 
	C199.417496,107.086586 193.803940,106.257866 188.475403,107.172760 
	C180.275620,108.580650 174.415649,103.918495 168.228226,100.452904 
	C162.247375,97.103004 158.633698,96.996445 153.756256,101.981102 
	C153.133957,102.617073 151.993866,102.715584 151.158417,103.179649 
	C148.811966,104.483009 146.499344,105.847290 143.717773,107.115540 
	C140.574646,107.078079 137.887115,107.112625 134.719666,107.112427 
	C127.451904,107.071213 120.664070,107.064735 113.448936,107.039223 
	C111.020538,107.058601 109.019440,107.097015 106.858475,106.846184 
	C105.815651,105.981117 104.932716,105.405289 104.026863,104.482185 
	C102.803131,103.288673 101.602310,102.442421 100.371857,101.226807 
	C98.082161,93.456139 97.115677,92.935562 92.699188,96.944099 
	C92.464729,97.021248 91.994507,97.171562 91.656151,97.083191 
	C90.254372,96.543617 89.190948,96.092415 88.136230,95.245880 
	C87.871994,92.581192 87.599060,90.311829 87.257477,87.668037 
	C87.205658,86.533844 87.222488,85.774078 87.335739,84.901749 
	C87.551178,84.485901 87.491417,84.219559 87.210815,83.576042 
	C87.109421,81.775902 87.050072,80.389862 87.215729,78.781395 
	C88.571045,77.060265 89.701355,75.561554 90.911972,74.432220 
	C91.677681,76.478340 92.191460,78.256706 93.104637,79.798523 
	C93.792313,80.959641 94.991913,81.817558 96.268311,83.084335 
	C99.403770,83.578094 102.234550,83.797966 105.168221,84.369827 
	C107.900826,87.924805 117.507820,90.336395 120.864365,88.392708 
	C122.109657,87.671593 122.903656,86.171143 124.205521,84.859329 
	C126.950317,82.523117 129.239304,80.142639 131.867584,78.227875 
	C137.467255,74.148369 144.045059,76.725227 150.594818,75.939346 
	C157.009262,75.972801 162.966141,75.962929 169.388489,75.968193 
	C175.931412,77.026306 182.008865,78.069275 188.086319,79.112251 
	C189.098389,80.094475 190.076477,81.115051 191.131332,82.048950 
	C192.375717,83.150620 193.686508,84.177284 194.864380,85.801857 
	C195.826233,86.612152 196.892227,86.857056 197.958221,87.101967 
z"/>
<path fill="#1A1D1A" opacity="1.000000" stroke="none" 
	d="
M91.937927,149.046387 
	C70.036934,152.890808 44.507763,146.439240 30.992558,125.780289 
	C26.792418,119.360077 23.716375,112.212196 19.963984,105.487701 
	C18.365442,102.623024 16.174198,100.087555 14.595626,97.213882 
	C13.693235,95.571136 12.779973,92.064087 13.067204,91.928459 
	C15.832908,90.622513 18.822716,89.722176 21.824139,89.038078 
	C22.487383,88.886894 23.449471,90.046860 24.739416,91.085220 
	C26.463100,93.434052 28.256212,95.136124 28.889845,97.195030 
	C32.180927,107.889008 39.303467,114.305542 50.253792,117.294937 
	C54.961414,118.719727 59.392166,119.947044 63.862396,121.007980 
	C74.319328,123.489784 84.793495,125.523865 95.683723,125.198593 
	C99.320900,125.089958 103.439224,126.546501 102.912979,132.242249 
	C102.159653,139.029617 99.493767,144.115311 93.502045,147.143127 
	C92.831367,147.482071 92.452255,148.398026 91.937927,149.046387 
z"/>
<path fill="#1A1D1A" opacity="1.000000" stroke="none" 
	d="
M203.925583,112.871971 
	C205.122269,116.644844 206.478500,120.377380 207.447189,124.207909 
	C207.919540,126.075737 208.127838,128.240631 207.670776,130.075562 
	C204.852478,141.390182 193.627151,149.977814 181.929382,149.997131 
	C173.526871,150.011002 165.109879,150.277908 156.729813,149.843979 
	C153.889633,149.696930 151.142670,147.750229 148.174713,145.911362 
	C147.309723,142.756866 146.623138,140.316925 146.194641,137.612579 
	C149.599991,136.191254 152.747238,135.034317 156.255829,133.906555 
	C158.109238,133.322266 159.601318,132.708786 161.441650,131.906342 
	C162.894867,131.479309 163.990616,131.179337 165.106277,131.013245 
	C172.210129,129.955795 179.448929,129.300003 185.363495,123.860382 
	C188.438522,121.414200 191.211609,119.110390 194.281158,116.756531 
	C195.232361,115.993118 195.887115,115.279762 196.814407,114.399155 
	C199.003860,111.955093 201.123032,110.695267 203.925583,112.871971 
z"/>
<path fill="#497D34" opacity="1.000000" stroke="none" 
	d="
M49.994862,117.021858 
	C39.303467,114.305542 32.180927,107.889008 28.889845,97.195030 
	C28.256212,95.136124 26.463100,93.434052 25.024918,91.260643 
	C24.229994,86.441299 23.509838,81.939964 23.023575,77.413513 
	C22.197605,69.724884 25.524862,63.404999 30.022453,57.588692 
	C30.876051,56.484818 32.349228,55.869331 33.506691,54.989265 
	C36.093811,53.022194 38.662128,51.030388 42.035873,49.018471 
	C48.396770,48.288574 53.083920,50.120358 56.835335,54.148201 
	C53.913002,57.557552 51.442127,60.933357 48.542889,63.888969 
	C36.030964,76.644173 35.606651,100.091057 47.721401,113.281013 
	C48.689396,114.334915 49.246704,115.766037 49.994862,117.021858 
z"/>
<path fill="#558D3D" opacity="1.000000" stroke="none" 
	d="
M204.095764,112.578751 
	C201.123032,110.695267 199.003860,111.955093 196.667664,114.233124 
	C196.248367,114.234337 195.924072,113.945404 195.797165,113.676674 
	C194.486618,113.414902 193.264740,113.232918 192.126358,113.463371 
	C188.339111,114.230042 184.581070,115.876968 180.813217,115.873039 
	C166.383591,115.857994 151.943802,115.559196 137.530426,114.883553 
	C131.670380,114.608856 125.868217,113.099266 120.497421,112.099625 
	C124.955811,111.981606 128.956497,111.915520 133.395172,111.890961 
	C137.776108,111.432198 142.901215,113.508049 144.173386,107.187538 
	C146.499344,105.847290 148.811966,104.483009 151.158417,103.179649 
	C151.993866,102.715584 153.133957,102.617073 153.756256,101.981102 
	C158.633698,96.996445 162.247375,97.103004 168.228226,100.452904 
	C174.415649,103.918495 180.275620,108.580650 188.475403,107.172760 
	C193.803940,106.257866 199.417496,107.086586 204.895615,106.903236 
	C206.352936,106.854462 207.781769,105.954697 209.558289,105.247665 
	C208.017242,107.461632 206.141586,109.873573 204.095764,112.578751 
z"/>
<path fill="#15342C" opacity="1.000000" stroke="none" 
	d="
M145.936554,137.876984 
	C146.623138,140.316925 147.309723,142.756866 147.995087,145.605621 
	C143.760086,152.456055 136.625931,151.464935 130.691895,151.694702 
	C118.664124,152.160400 106.581734,151.252396 94.524643,150.831253 
	C93.807167,150.806198 93.114189,150.079758 92.173866,149.363037 
	C92.452255,148.398026 92.831367,147.482071 93.502045,147.143127 
	C99.493767,144.115311 102.159653,139.029617 103.288292,132.293457 
	C107.087547,133.383560 110.240974,135.363220 113.648758,136.016953 
	C117.314796,136.720215 121.236687,135.951248 125.015800,136.236771 
	C130.372696,136.641525 135.701096,137.423492 140.610809,137.969574 
	C129.002335,137.315704 117.824730,136.736526 106.660355,136.158035 
	C106.229256,141.875244 109.260735,143.885071 116.297356,142.917191 
	C123.313431,141.952148 130.337753,141.035141 137.329575,139.916473 
	C138.618439,139.710266 139.769531,138.643036 141.303833,137.954712 
	C143.061172,137.916443 144.498856,137.896713 145.936554,137.876984 
z"/>
<path fill="#497D34" opacity="1.000000" stroke="none" 
	d="
M74.712601,16.128807 
	C77.432991,18.122669 77.190231,20.186539 75.872635,22.787848 
	C73.776665,26.925915 72.290230,31.369791 70.254456,35.542072 
	C68.089668,39.978775 65.585457,44.249863 62.688770,48.807663 
	C57.804886,48.007969 53.461697,46.993881 49.118504,45.979797 
	C50.827950,42.494675 51.970875,38.545288 54.366249,35.622276 
	C59.168842,29.761812 64.599014,24.406706 69.903854,18.973564 
	C71.106682,17.741650 72.855194,17.042530 74.712601,16.128807 
z"/>
<path fill="#20281B" opacity="1.000000" stroke="none" 
	d="
M48.738876,46.051407 
	C53.461697,46.993881 57.804886,48.007969 62.516117,49.114151 
	C69.262268,55.247005 75.827171,60.911442 85.745163,60.938541 
	C86.031235,61.644211 86.025421,61.819817 85.573105,61.998085 
	C82.400826,62.969944 78.064224,59.607555 76.683701,64.878540 
	C69.946236,61.128128 63.517952,57.524715 57.089676,53.921303 
	C53.083920,50.120358 48.396770,48.288574 42.388107,48.938004 
	C44.081459,47.966152 46.220356,47.044586 48.738876,46.051407 
z"/>
<path fill="#171615" opacity="1.000000" stroke="none" 
	d="
M150.137222,75.896004 
	C144.045059,76.725227 137.467255,74.148369 131.867584,78.227875 
	C129.239304,80.142639 126.950317,82.523117 123.758926,84.851349 
	C117.028633,84.679382 111.046989,84.348610 105.065338,84.017838 
	C102.234550,83.797966 99.403770,83.578094 96.239311,82.680969 
	C95.271034,77.003029 94.636429,72.002342 94.364258,66.996613 
	C95.818565,66.336090 96.910446,65.680603 98.470764,65.016556 
	C105.921951,64.989471 112.905197,65.009705 119.887039,64.920753 
	C121.337875,64.902267 122.812279,64.588783 124.225380,64.218689 
	C126.801430,63.543995 129.294067,62.411339 131.903259,62.031590 
	C137.395096,61.232304 142.969482,60.990967 148.454163,60.154472 
	C153.559311,59.375862 152.373764,57.292805 149.512604,55.127235 
	C151.262680,54.772808 152.639267,54.432415 154.015839,54.092026 
	C158.882034,54.472900 163.748245,54.853775 168.821579,55.966061 
	C168.987534,57.777412 168.946365,58.857353 168.471619,59.958893 
	C165.011490,60.559410 161.984955,61.138332 158.595032,61.787582 
	C156.883499,64.270020 155.535385,66.682129 153.863312,69.217087 
	C152.405289,71.525291 151.271255,73.710648 150.137222,75.896004 
z"/>
<path fill="#171615" opacity="1.000000" stroke="none" 
	d="
M188.504044,79.085716 
	C182.008865,78.069275 175.931412,77.026306 169.308258,75.673386 
	C167.856567,74.562187 166.950562,73.760948 165.971207,72.602234 
	C164.981430,69.837608 164.065002,67.430450 163.594055,65.014648 
	C168.355408,64.320702 172.671249,63.635399 177.400574,62.890209 
	C182.422989,62.544113 187.053391,62.438946 191.631973,61.896358 
	C193.969360,61.619377 196.213776,60.557800 198.500229,59.850857 
	C198.419327,59.584888 198.338425,59.318916 198.257538,59.052944 
	C200.175674,59.342751 202.093826,59.632553 204.371887,59.909225 
	C205.487915,58.876732 206.244034,57.857368 207.000137,56.838005 
	C209.116440,56.986309 211.232742,57.134617 214.315170,57.350628 
	C214.866043,63.623466 215.609894,69.770531 215.780533,75.933472 
	C215.816040,77.216019 213.739334,79.681267 212.619324,79.691071 
	C204.722580,79.760162 196.821472,79.329971 188.504044,79.085716 
z"/>
<path fill="#3F652D" opacity="1.000000" stroke="none" 
	d="
M153.736511,53.855606 
	C152.639267,54.432415 151.262680,54.772808 149.096161,55.088337 
	C147.199265,55.056156 146.092331,55.048840 144.706696,54.789299 
	C142.923050,54.307449 141.418091,54.077824 139.913116,53.848202 
	C139.372574,52.935669 139.001694,51.408203 138.265442,51.205093 
	C130.319916,49.013138 122.322060,47.009102 114.326874,45.000031 
	C111.437630,44.274014 108.413071,43.959316 105.633682,42.951229 
	C100.679970,41.154510 97.011864,43.226589 93.358559,46.152260 
	C89.887726,48.931805 86.325317,51.614464 82.635414,54.089607 
	C81.808495,54.644291 80.283188,54.157803 79.079399,54.150642 
	C79.386971,52.965054 79.307037,51.308025 80.072174,50.679123 
	C82.749428,48.478561 85.724174,46.641201 88.573860,44.648651 
	C90.071007,43.601826 91.751717,42.717010 92.986595,41.414852 
	C96.407471,37.807629 100.283791,37.670673 104.881340,38.688175 
	C117.455154,41.470940 130.387482,42.749588 142.163300,48.677197 
	C143.850327,49.526402 146.499771,48.561634 148.687424,48.299648 
	C154.754150,47.573135 160.796448,46.604889 166.876938,46.038692 
	C180.562515,44.764336 194.261658,43.626957 207.966095,42.574986 
	C209.572556,42.451672 211.246979,43.213879 212.889893,43.565575 
	C212.834808,44.292023 212.779709,45.018471 212.724625,45.744919 
	C191.319672,47.826614 169.914703,49.908306 148.509735,51.990002 
	C148.503662,52.206009 148.497604,52.422016 148.491531,52.638023 
	C150.146744,52.965076 151.801971,53.292133 153.736511,53.855606 
z"/>
<path fill="#2F2E2F" opacity="1.000000" stroke="none" 
	d="
M144.985382,55.041527 
	C146.092331,55.048840 147.199265,55.056156 148.722656,55.102371 
	C152.373764,57.292805 153.559311,59.375862 148.454163,60.154472 
	C142.969482,60.990967 137.395096,61.232304 131.903259,62.031590 
	C129.294067,62.411339 126.801430,63.543995 124.225380,64.218689 
	C122.812279,64.588783 121.337875,64.902267 119.887039,64.920753 
	C112.905197,65.009705 105.921951,64.989471 98.040474,65.005402 
	C94.829788,65.503769 92.459137,65.823669 90.220139,66.549629 
	C87.134964,67.549950 84.149239,68.857010 81.070206,69.712616 
	C80.973625,68.962952 80.927750,68.533348 81.181519,67.917992 
	C82.993980,65.819969 84.506798,63.907696 86.019615,61.995422 
	C86.025421,61.819817 86.031235,61.644211 86.048981,61.205338 
	C86.812370,60.970619 87.563828,60.999165 88.949829,61.272751 
	C91.021568,61.401386 92.458771,61.284981 93.895966,61.168579 
	C97.399811,59.563076 100.903656,57.957573 105.072121,56.188389 
	C106.578835,55.706017 107.420937,55.387325 108.263031,55.068634 
	C109.856644,54.476707 111.450256,53.884785 113.522491,53.510033 
	C115.636917,54.775047 117.272728,55.822887 118.950745,57.228619 
	C119.480896,59.762787 120.263565,60.538727 121.940552,58.342148 
	C122.881973,57.109043 124.020645,56.026535 125.474030,54.928001 
	C128.251266,55.369469 130.624939,55.759121 133.010620,56.546997 
	C133.490280,61.631710 137.154266,59.492229 139.562698,59.983101 
	C143.580292,60.801937 144.040588,57.638279 144.985382,55.041527 
z"/>
<path fill="#2B2A2B" opacity="1.000000" stroke="none" 
	d="
M204.011963,59.922359 
	C202.093826,59.632553 200.175674,59.342751 198.257538,59.052944 
	C198.338425,59.318916 198.419327,59.584888 198.500229,59.850857 
	C196.213776,60.557800 193.969360,61.619377 191.631973,61.896358 
	C187.053391,62.438946 182.422989,62.544113 177.362732,62.506256 
	C174.242706,61.433895 171.573944,60.685596 168.905197,59.937298 
	C168.946365,58.857353 168.987534,57.777412 169.046204,56.292061 
	C178.792572,54.476028 188.464401,51.548981 198.996506,55.151089 
	C202.036713,56.040264 204.559540,56.452377 204.011963,59.922359 
z"/>
<path fill="#303030" opacity="1.000000" stroke="none" 
	d="
M144.706696,54.789299 
	C144.040588,57.638279 143.580292,60.801937 139.562698,59.983101 
	C137.154266,59.492229 133.490280,61.631710 133.377899,56.468521 
	C134.546387,55.312626 135.359634,54.633427 136.172897,53.954224 
	C137.171951,53.947388 138.170990,53.940552 139.541580,53.890961 
	C141.418091,54.077824 142.923050,54.307449 144.706696,54.789299 
z"/>
<path fill="#787F75" opacity="1.000000" stroke="none" 
	d="
M118.908539,56.870728 
	C117.272728,55.822887 115.636917,54.775047 113.827881,53.417564 
	C119.968773,49.727135 126.679504,51.038673 133.234467,51.722229 
	C130.458633,52.975388 126.656631,49.628994 124.448532,54.090027 
	C121.990372,54.379978 118.742424,52.509464 118.908539,56.870728 
z"/>
<path fill="#D1D2CF" opacity="1.000000" stroke="none" 
	d="
M124.858620,54.119728 
	C126.656631,49.628994 130.458633,52.975388 133.598724,51.916218 
	C134.654099,52.363472 135.265854,52.892792 136.025253,53.688171 
	C135.359634,54.633427 134.546387,55.312626 133.365860,56.070301 
	C130.624939,55.759121 128.251266,55.369469 125.430466,54.736252 
	C124.983322,54.492683 124.858620,54.119728 124.858620,54.119728 
z"/>
<path fill="#0F1207" opacity="1.000000" stroke="none" 
	d="
M206.625961,88.084496 
	C206.809189,90.818367 206.034622,93.477524 202.817261,92.718117 
	C201.582870,92.426765 200.901932,89.790504 199.957184,87.834610 
	C202.041534,87.636650 204.137512,87.826813 206.625961,88.084496 
z"/>
<path fill="#2D2E2E" opacity="1.000000" stroke="none" 
	d="
M204.371887,59.909225 
	C204.559540,56.452377 202.036713,56.040264 199.338699,55.308228 
	C201.560379,55.502766 204.068375,55.906525 206.788269,56.574146 
	C206.244034,57.857368 205.487915,58.876732 204.371887,59.909225 
z"/>
<path fill="#0F1207" opacity="1.000000" stroke="none" 
	d="
M197.805542,86.807701 
	C196.892227,86.857056 195.826233,86.612152 194.935089,86.156342 
	C195.957581,86.134773 196.805222,86.324104 197.805542,86.807701 
z"/>
<path fill="#CFD1CF" opacity="1.000000" stroke="none" 
	d="
M108.060303,54.773079 
	C107.420937,55.387325 106.578835,55.706017 105.373901,55.972076 
	C105.959900,55.438808 106.908730,54.958168 108.060303,54.773079 
z"/>
<path fill="#20281B" opacity="1.000000" stroke="none" 
	d="
M93.495827,61.123955 
	C92.458771,61.284981 91.021568,61.401386 89.323380,61.320480 
	C90.406815,61.108562 91.751251,61.093948 93.495827,61.123955 
z"/>
<path fill="#568E3D" opacity="1.000000" stroke="none" 
	d="
M80.881874,68.103745 
	C80.927750,68.533348 80.973625,68.962952 81.024490,70.109634 
	C80.862900,75.122475 82.422989,78.159462 86.990730,79.003822 
	C87.050072,80.389862 87.109421,81.775902 87.158722,83.831421 
	C87.178894,84.672035 87.209106,84.843178 87.239319,85.014320 
	C87.222488,85.774078 87.205658,86.533844 87.184113,88.075455 
	C87.495438,91.118607 87.811485,93.379913 88.127533,95.641220 
	C89.190948,96.092415 90.254372,96.543617 91.589676,97.478622 
	C91.015388,102.435143 89.414505,106.973160 93.156166,111.345581 
	C95.165817,113.142784 97.014534,114.657158 99.034653,116.476318 
	C101.165298,120.205025 103.911934,122.301186 108.367172,122.188416 
	C113.540359,125.989143 118.979385,127.644997 125.077087,127.437408 
	C126.636024,129.181747 128.068924,131.547668 129.746246,131.735916 
	C136.459900,132.489380 143.249405,132.566849 150.402298,132.918701 
	C152.493988,133.254486 154.194229,133.565933 155.894485,133.877380 
	C152.747238,135.034317 149.599991,136.191254 146.194641,137.612579 
	C144.498856,137.896713 143.061172,137.916443 141.317566,137.972916 
	C141.011658,138.009659 141.041672,138.044266 141.041672,138.044266 
	C135.701096,137.423492 130.372696,136.641525 125.015800,136.236771 
	C121.236687,135.951248 117.314796,136.720215 113.648758,136.016953 
	C110.240974,135.363220 107.087547,133.383560 103.446823,131.936462 
	C103.439224,126.546501 99.320900,125.089958 95.683723,125.198593 
	C84.793495,125.523865 74.319328,123.489784 63.862396,121.007980 
	C59.392166,119.947044 54.961414,118.719727 50.253792,117.294937 
	C49.246704,115.766037 48.689396,114.334915 47.721401,113.281013 
	C35.606651,100.091057 36.030964,76.644173 48.542889,63.888969 
	C51.442127,60.933357 53.913002,57.557552 56.835335,54.148201 
	C63.517952,57.524715 69.946236,61.128128 76.880280,65.120438 
	C78.551323,66.374146 79.716599,67.238945 80.881874,68.103745 
z"/>
<path fill="#1D1E18" opacity="1.000000" stroke="none" 
	d="
M87.215729,78.781395 
	C82.422989,78.159462 80.862900,75.122475 81.075195,70.429688 
	C84.149239,68.857010 87.134964,67.549950 90.220139,66.549629 
	C92.459137,65.823669 94.829788,65.503769 97.572029,65.013962 
	C96.910446,65.680603 95.818565,66.336090 94.102951,67.255920 
	C92.596695,69.701126 91.714180,71.881981 90.831657,74.062843 
	C89.701355,75.561554 88.571045,77.060265 87.215729,78.781395 
z"/>
<path fill="#140D07" opacity="1.000000" stroke="none" 
	d="
M132.957184,111.849426 
	C128.956497,111.915520 124.955811,111.981606 120.152374,112.049423 
	C118.885902,112.008881 118.422188,111.966614 117.793472,111.635674 
	C116.377739,109.917412 115.126991,108.487839 113.876251,107.058258 
	C120.664070,107.064735 127.451904,107.071213 134.680023,107.453728 
	C134.399261,109.169662 133.678223,110.509544 132.957184,111.849426 
z"/>
<path fill="#568E3D" opacity="1.000000" stroke="none" 
	d="
M105.168221,84.369827 
	C111.046989,84.348610 117.028633,84.679382 123.456879,85.018127 
	C122.903656,86.171143 122.109657,87.671593 120.864365,88.392708 
	C117.507820,90.336395 107.900826,87.924805 105.168221,84.369827 
z"/>
<path fill="#568142" opacity="1.000000" stroke="none" 
	d="
M166.044556,72.959709 
	C166.950562,73.760948 167.856567,74.562187 168.842773,75.658241 
	C162.966141,75.962929 157.009262,75.972801 150.594818,75.939346 
	C151.271255,73.710648 152.405289,71.525291 154.183578,69.394485 
	C154.917618,71.753639 155.422516,73.807991 158.328720,73.672417 
	C160.906143,73.552177 163.473022,73.206093 166.044556,72.959709 
z"/>
<path fill="#613122" opacity="1.000000" stroke="none" 
	d="
M104.049789,104.829453 
	C104.932716,105.405289 105.815651,105.981117 107.079758,107.081055 
	C109.013672,108.734230 110.566406,109.863297 111.810112,111.076233 
	C111.004517,111.780006 110.507965,112.399918 109.620758,113.018036 
	C106.262283,111.708542 102.161911,112.263603 101.351791,107.973984 
	C102.493515,106.905060 103.271652,105.867256 104.049789,104.829453 
z"/>
<path fill="#303B1D" opacity="1.000000" stroke="none" 
	d="
M133.395172,111.890961 
	C133.678223,110.509544 134.399261,109.169662 135.159943,107.488472 
	C137.887115,107.112625 140.574646,107.078079 143.717773,107.115540 
	C142.901215,113.508049 137.776108,111.432198 133.395172,111.890961 
z"/>
<path fill="#375528" opacity="1.000000" stroke="none" 
	d="
M90.911972,74.432220 
	C91.714180,71.881981 92.596695,69.701126 93.740524,67.260963 
	C94.636429,72.002342 95.271034,77.003029 95.934631,82.407074 
	C94.991913,81.817558 93.792313,80.959641 93.104637,79.798523 
	C92.191460,78.256706 91.677681,76.478340 90.911972,74.432220 
z"/>
<path fill="#76442E" opacity="1.000000" stroke="none" 
	d="
M92.933655,96.866951 
	C97.115677,92.935562 98.082161,93.456139 100.276031,101.649139 
	C100.137459,103.293678 100.065063,104.146523 99.605927,104.958237 
	C98.084053,102.257721 96.948936,99.598328 96.228226,97.909828 
	C95.402466,98.460617 94.227051,99.244637 93.040787,99.633644 
	C92.997833,98.448074 92.965744,97.657516 92.933655,96.866951 
z"/>
<path fill="#568E3D" opacity="1.000000" stroke="none" 
	d="
M112.119148,110.992371 
	C110.566406,109.863297 109.013672,108.734230 107.239639,107.370285 
	C109.019440,107.097015 111.020538,107.058601 113.448944,107.039230 
	C115.126991,108.487839 116.377739,109.917412 117.416145,111.658859 
	C115.508919,111.644608 113.814034,111.318489 112.119148,110.992371 
z"/>
<path fill="#5D4128" opacity="1.000000" stroke="none" 
	d="
M92.699188,96.944099 
	C92.965744,97.657516 92.997833,98.448074 93.022102,100.089249 
	C93.007935,104.314156 93.001587,107.688461 92.995232,111.062767 
	C89.414505,106.973160 91.015388,102.435143 91.928040,97.567001 
	C91.994507,97.171562 92.464729,97.021248 92.699188,96.944099 
z"/>
<path fill="#522A1E" opacity="1.000000" stroke="none" 
	d="
M99.992676,104.999359 
	C100.065063,104.146523 100.137459,103.293678 100.305672,102.018509 
	C101.602310,102.442421 102.803131,103.288673 104.026871,104.482185 
	C103.271652,105.867256 102.493515,106.905060 101.129501,107.735497 
	C100.359970,106.685204 100.176323,105.842285 99.992676,104.999359 
z"/>
<path fill="#1D1E18" opacity="1.000000" stroke="none" 
	d="
M88.136230,95.245880 
	C87.811485,93.379913 87.495438,91.118607 87.252754,88.449890 
	C87.599060,90.311829 87.871994,92.581192 88.136230,95.245880 
z"/>
<path fill="#1D1E18" opacity="1.000000" stroke="none" 
	d="
M87.335739,84.901749 
	C87.209106,84.843178 87.178894,84.672035 87.200775,84.245522 
	C87.491417,84.219559 87.551178,84.485901 87.335739,84.901749 
z"/>
<path fill="#8A4931" opacity="1.000000" stroke="none" 
	d="
M99.605927,104.958237 
	C100.176323,105.842285 100.359970,106.685204 100.765900,107.766617 
	C102.161911,112.263603 106.262283,111.708542 109.615631,113.008408 
	C110.001160,113.000580 109.983551,112.991577 110.085335,113.331085 
	C123.256973,119.218704 136.294754,124.893417 151.146362,124.370224 
	C157.959366,124.912743 164.620041,125.107140 171.282120,125.221451 
	C171.514618,125.225441 171.760803,124.431496 172.464081,124.009811 
	C176.972214,124.007690 181.016891,124.005226 185.061554,124.002762 
	C179.448929,129.300003 172.210129,129.955795 165.106277,131.013245 
	C163.990616,131.179337 162.894867,131.479309 160.976868,131.882095 
	C156.783096,132.016663 153.402359,131.986511 149.811615,131.659790 
	C147.738586,130.948975 145.875565,130.534775 143.657227,129.944824 
	C141.189651,129.551270 139.077393,129.333435 136.538696,129.096313 
	C132.429306,128.404053 128.746353,127.731079 125.063393,127.058105 
	C118.979385,127.644997 113.540359,125.989143 108.184265,121.882339 
	C105.909309,117.721924 103.007149,115.901970 98.863251,116.171532 
	C97.014534,114.657158 95.165817,113.142784 93.156166,111.345581 
	C93.001587,107.688461 93.007935,104.314156 93.032959,100.484253 
	C94.227051,99.244637 95.402466,98.460617 96.228226,97.909828 
	C96.948936,99.598328 98.084053,102.257721 99.605927,104.958237 
z"/>
<path fill="#673525" opacity="1.000000" stroke="none" 
	d="
M185.363495,123.860382 
	C181.016891,124.005226 176.972214,124.007690 172.464478,123.611328 
	C172.007614,122.152542 172.013809,121.092575 172.445892,120.027740 
	C174.575851,120.006203 176.279938,119.989517 178.429443,119.982994 
	C181.650711,119.152733 185.838074,122.223900 187.420319,117.034561 
	C189.803284,116.328682 191.813904,115.632088 193.867615,115.246391 
	C193.935364,115.973717 193.960037,116.390152 193.984695,116.806587 
	C191.211609,119.110390 188.438522,121.414200 185.363495,123.860382 
z"/>
<path fill="#614C2C" opacity="1.000000" stroke="none" 
	d="
M150.021637,131.956375 
	C153.402359,131.986511 156.783096,132.016663 160.628601,132.071045 
	C159.601318,132.708786 158.109238,133.322266 156.255829,133.906555 
	C154.194229,133.565933 152.493988,133.254486 150.402771,132.684601 
	C150.011795,132.426163 150.021637,131.956375 150.021637,131.956375 
z"/>
<path fill="#558D3D" opacity="1.000000" stroke="none" 
	d="
M194.281158,116.756531 
	C193.960037,116.390152 193.935364,115.973717 194.081741,115.038208 
	C194.809875,114.327896 195.366974,114.136650 195.924072,113.945404 
	C195.924072,113.945404 196.248367,114.234337 196.395111,114.400368 
	C195.887115,115.279762 195.232361,115.993118 194.281158,116.756531 
z"/>
<path fill="#884730" opacity="1.000000" stroke="none" 
	d="
M195.797165,113.676674 
	C195.366974,114.136650 194.809875,114.327896 194.038635,114.727325 
	C191.813904,115.632088 189.803284,116.328682 186.971268,117.021301 
	C183.372223,117.848648 179.173035,114.752319 177.984024,119.972839 
	C176.279938,119.989517 174.575851,120.006203 171.975372,120.015533 
	C164.712524,120.015984 158.346069,120.023781 151.567230,120.025642 
	C149.780228,120.001251 148.405624,119.982780 146.979034,119.577682 
	C144.751099,115.092896 140.943893,117.799995 137.509216,117.038383 
	C133.450333,116.740166 129.814789,116.664886 126.256096,116.102875 
	C120.804100,115.241875 115.405067,114.045570 109.983551,112.991577 
	C109.983551,112.991577 110.001160,113.000580 110.006287,113.010208 
	C110.507965,112.399918 111.004517,111.780006 111.810112,111.076233 
	C113.814034,111.318489 115.508919,111.644608 117.581131,111.947540 
	C118.422188,111.966614 118.885902,112.008881 119.694672,112.101341 
	C125.868217,113.099266 131.670380,114.608856 137.530426,114.883553 
	C151.943802,115.559196 166.383591,115.857994 180.813217,115.873039 
	C184.581070,115.876968 188.339111,114.230042 192.126358,113.463371 
	C193.264740,113.232918 194.486618,113.414902 195.797165,113.676674 
z"/>
<path fill="#568E3D" opacity="1.000000" stroke="none" 
	d="
M140.997925,137.991455 
	C139.769531,138.643036 138.618439,139.710266 137.329575,139.916473 
	C130.337753,141.035141 123.313431,141.952148 116.297356,142.917191 
	C109.260735,143.885071 106.229256,141.875244 106.660355,136.158035 
	C117.824730,136.736526 129.002335,137.315704 140.610809,137.969574 
	C141.041672,138.044266 141.011658,138.009659 140.997925,137.991455 
z"/>
<path fill="#1D1D1A" opacity="1.000000" stroke="none" 
	d="
M81.181519,67.917992 
	C79.716599,67.238945 78.551323,66.374146 77.189468,65.267441 
	C78.064224,59.607555 82.400826,62.969944 85.573105,61.998085 
	C84.506798,63.907696 82.993980,65.819969 81.181519,67.917992 
z"/>
<path fill="#DADBD9" opacity="1.000000" stroke="none" 
	d="
M165.971207,72.602234 
	C163.473022,73.206093 160.906143,73.552177 158.328720,73.672417 
	C155.422516,73.807991 154.917618,71.753639 154.507538,69.271637 
	C155.535385,66.682129 156.883499,64.270020 158.932266,61.879871 
	C160.804794,62.942326 161.976669,63.982811 163.148560,65.023300 
	C164.065002,67.430450 164.981430,69.837608 165.971207,72.602234 
z"/>
<path fill="#2E2E30" opacity="1.000000" stroke="none" 
	d="
M163.594055,65.014648 
	C161.976669,63.982811 160.804794,62.942326 159.295654,61.809547 
	C161.984955,61.138332 165.011490,60.559410 168.471619,59.958893 
	C171.573944,60.685596 174.242706,61.433895 176.949280,62.566147 
	C172.671249,63.635399 168.355408,64.320702 163.594055,65.014648 
z"/>
<path fill="#131010" opacity="1.000000" stroke="none" 
	d="
M124.448532,54.090027 
	C124.858620,54.119728 124.983322,54.492683 125.026886,54.684433 
	C124.020645,56.026535 122.881973,57.109043 121.940552,58.342148 
	C120.263565,60.538727 119.480896,59.762787 118.950745,57.228615 
	C118.742424,52.509464 121.990372,54.379978 124.448532,54.090027 
z"/>
<path fill="#56512C" opacity="1.000000" stroke="none" 
	d="
M149.811615,131.659790 
	C150.021637,131.956375 150.011795,132.426163 150.011322,132.660263 
	C143.249405,132.566849 136.459900,132.489380 129.746246,131.735916 
	C128.068924,131.547668 126.636024,129.181747 125.077087,127.437408 
	C128.746353,127.731079 132.429306,128.404053 136.586670,129.463348 
	C139.246796,133.312881 141.583542,132.900421 144.012543,130.120575 
	C145.875565,130.534775 147.738586,130.948975 149.811615,131.659790 
z"/>
<path fill="#5F4B2A" opacity="1.000000" stroke="none" 
	d="
M99.034653,116.476318 
	C103.007149,115.901970 105.909309,117.721924 107.878174,121.726227 
	C103.911934,122.301186 101.165298,120.205025 99.034653,116.476318 
z"/>
<path fill="#673322" opacity="1.000000" stroke="none" 
	d="
M147.031006,119.964310 
	C148.405624,119.982780 149.780228,120.001251 151.571075,120.380653 
	C151.656296,121.830765 151.325272,122.919937 150.994263,124.009117 
	C136.294754,124.893417 123.256973,119.218704 110.085335,113.331085 
	C115.405067,114.045570 120.804100,115.241875 126.256096,116.102875 
	C129.814789,116.664886 133.450333,116.740166 137.562012,117.423851 
	C140.248886,121.905151 144.058884,119.189209 147.031006,119.964310 
z"/>
<path fill="#743B29" opacity="1.000000" stroke="none" 
	d="
M151.146362,124.370224 
	C151.325272,122.919937 151.656296,121.830765 151.983459,120.386581 
	C158.346069,120.023781 164.712524,120.015984 171.549500,120.020401 
	C172.013809,121.092575 172.007614,122.152542 172.001007,123.610985 
	C171.760803,124.431496 171.514618,125.225441 171.282120,125.221451 
	C164.620041,125.107140 157.959366,124.912743 151.146362,124.370224 
z"/>
<path fill="#614C2C" opacity="1.000000" stroke="none" 
	d="
M143.657227,129.944824 
	C141.583542,132.900421 139.246796,133.312881 137.013123,129.482635 
	C139.077393,129.333435 141.189651,129.551270 143.657227,129.944824 
z"/>
<path fill="#7C3F2C" opacity="1.000000" stroke="none" 
	d="
M178.429443,119.982994 
	C179.173035,114.752319 183.372223,117.848648 186.598907,117.030594 
	C185.838074,122.223900 181.650711,119.152733 178.429443,119.982994 
z"/>
<path fill="#773D29" opacity="1.000000" stroke="none" 
	d="
M146.979034,119.577682 
	C144.058884,119.189209 140.248886,121.905151 138.019775,117.428757 
	C140.943893,117.799995 144.751099,115.092896 146.979034,119.577682 
z"/>
</svg>